<?xml version="1.0" encoding="UTF-8"?>
<svg version="1.1" xmlns="http://www.w3.org/2000/svg" width="194" height="194">
<path d="M0 0 C64.02 0 128.04 0 194 0 C194 64.02 194 128.04 194 194 C129.98 194 65.96 194 0 194 C0 129.98 0 65.96 0 0 Z " fill="#FEFDFD" transform="translate(0,0)"/>
<path d="M0 0 C59.73 0 119.46 0 181 0 C177.81098074 3.18901926 176.0353336 4.74742974 172.24609375 6.734375 C171.31966064 7.22188232 170.39322754 7.70938965 169.4387207 8.21166992 C168.44831787 8.71931885 167.45791504 9.22696777 166.4375 9.75 C165.40391357 10.28149658 164.37032715 10.81299316 163.30541992 11.3605957 C137.18760632 24.63154016 109.63458568 33.02342188 81 39 C80.25427734 39.16193848 79.50855469 39.32387695 78.74023438 39.49072266 C53.21314285 45.02739222 27.0305733 46.22900798 1 46 C1 50.62 1 55.24 1 60 C0.67 60 0.34 60 0 60 C0 40.2 0 20.4 0 0 Z " fill="#FEFEFE" transform="translate(0,0)"/>
<path d="M0 0 C16.31982886 -0.08021762 16.31982886 -0.08021762 23.328125 -0.09765625 C28.09216827 -0.10956714 32.85613395 -0.12358941 37.62011719 -0.15087891 C41.46509776 -0.17276382 45.30999501 -0.18460128 49.15503311 -0.18975449 C50.61489293 -0.19342237 52.07474869 -0.20058402 53.5345726 -0.21146011 C74.7446436 -0.36305752 74.7446436 -0.36305752 84 6 C86.46192771 9.69289156 86.6852305 12.71313113 86 17 C84.1891409 20.03965634 83.09599977 21.60422231 79.75 22.8125 C79.1725 22.874375 78.595 22.93625 78 23 C78 23.66 78 24.32 78 25 C78.886875 25.04125 79.77375 25.0825 80.6875 25.125 C84.24011569 26.06342679 85.89020654 27.22919198 88.078125 30.19140625 C89.76047907 33.49195681 89.87696355 36.42797772 89 40 C85.84389834 45.06889054 82.63548869 47.18518161 77 49 C69.09744187 50.38640325 61.12035285 50.12633827 53.125 50.09765625 C51.58943732 50.09578836 50.05387404 50.09436621 48.51831055 50.09336853 C44.50049153 50.08957256 40.48270936 50.0797676 36.46490479 50.06866455 C31.63146221 50.05657646 26.79800724 50.05203427 21.96455383 50.04621124 C14.64301036 50.03655397 7.32154754 50.01737709 0 50 C0 33.5 0 17 0 0 Z " fill="#C1152F" transform="translate(100,144)"/>
<path d="M0 0 C10.56 0 21.12 0 32 0 C34.8153125 5.135625 34.8153125 5.135625 37.6875 10.375 C38.26846436 11.43251465 38.84942871 12.4900293 39.44799805 13.57958984 C42.42778276 19.0294659 45.27669075 24.50795017 47.93286133 30.12353516 C48.86243521 32.1630571 48.86243521 32.1630571 51 33 C51.26280762 32.14390137 51.52561523 31.28780273 51.79638672 30.40576172 C53.03071617 26.91308507 54.53964999 23.78794093 56.2578125 20.5078125 C56.82129395 19.4264502 57.38477539 18.34508789 57.96533203 17.23095703 C58.67802246 15.87599121 59.39071289 14.52102539 60.125 13.125 C62.39375 8.79375 64.6625 4.4625 67 0 C77.56 0 88.12 0 99 0 C99 16.17 99 32.34 99 49 C92.73 49 86.46 49 80 49 C79.67 37.78 79.34 26.56 79 15 C74.2402127 23.94275236 74.2402127 23.94275236 69.48730469 32.88916016 C68.88821289 34.01112793 68.28912109 35.1330957 67.671875 36.2890625 C66.76066895 38.00150146 66.76066895 38.00150146 65.83105469 39.74853516 C60.74034521 48.78827766 60.74034521 48.78827766 57.61816406 49.68115234 C56.75932617 49.64973145 55.90048828 49.61831055 55.015625 49.5859375 C54.08105469 49.56660156 53.14648438 49.54726562 52.18359375 49.52734375 C51.21550781 49.47707031 50.24742188 49.42679688 49.25 49.375 C48.26644531 49.34792969 47.28289063 49.32085937 46.26953125 49.29296875 C43.84412577 49.22232587 41.42318055 49.12376119 39 49 C38.63237549 48.3201001 38.26475098 47.6402002 37.88598633 46.93969727 C36.19535001 43.81368016 34.50393011 40.68808767 32.8125 37.5625 C32.23435547 36.49322266 31.65621094 35.42394531 31.06054688 34.32226562 C30.20493164 32.74155273 30.20493164 32.74155273 29.33203125 31.12890625 C28.55436401 29.69140015 28.55436401 29.69140015 27.76098633 28.22485352 C25.52921913 24.13786989 23.26146033 20.07062859 21 16 C20.67 26.89 20.34 37.78 20 49 C13.4 49 6.8 49 0 49 C0 32.83 0 16.66 0 0 Z " fill="#C11530" transform="translate(1,82)"/>
<path d="M0 0 C6.6 0 13.2 0 20 0 C20.33 10.56 20.66 21.12 21 32 C28.90593507 23.52203787 28.90593507 23.52203787 36.625 14.875 C37.17929687 14.27429688 37.73359375 13.67359375 38.3046875 13.0546875 C40.13667134 10.94912461 40.13667134 10.94912461 41.6953125 8.0703125 C44.08125916 4.50500057 46.05240482 1.74760523 50 0 C58.97292711 -1.4095457 67.96871579 -0.48225304 77 0 C77 16.17 77 32.34 77 49 C51.59 49 26.18 49 0 49 C0 32.83 0 16.66 0 0 Z " fill="#C21731" transform="translate(1,145)"/>
<path d="M0 0 C2.32174822 1.19038786 4.13213479 2.59845026 6.09375 4.3203125 C6.80015625 4.92617187 7.5065625 5.53203125 8.234375 6.15625 C9.84375 7.9453125 9.84375 7.9453125 9.84375 10.9453125 C7.43392438 12.65471505 5.09421213 14.1220346 2.53125 15.5703125 C1.76506348 16.00980225 0.99887695 16.44929199 0.20947266 16.90209961 C-53.88897833 47.43871765 -119.28651087 60.90597325 -181.15625 58.9453125 C-181.15625 54.3253125 -181.15625 49.7053125 -181.15625 44.9453125 C-180.14127441 44.90043701 -179.12629883 44.85556152 -178.08056641 44.80932617 C-138.42598449 43.0251616 -100.26494443 38.78355774 -62.15625 26.9453125 C-61.28887207 26.67638184 -60.42149414 26.40745117 -59.52783203 26.13037109 C-41.26254155 20.35289964 -23.27727746 12.60360494 -6.97558594 2.49853516 C-2.71797358 -0.06893411 -2.71797358 -0.06893411 0 0 Z " fill="#C1162F" transform="translate(182.15625,1.0546875)"/>
<path d="M0 0 C18.42881165 -1.8859188 18.42881165 -1.8859188 23.89453125 1.00048828 C27.45481258 4.02603743 29.67362367 8.01127209 32 12 C33.49542147 14.12060817 35.06199234 16.17766743 36.625 18.25 C37.75436717 19.83022126 38.88112964 21.4123292 40 23 C41.31599067 21.41956676 42.62751646 19.83541598 43.9375 18.25 C44.77796875 17.25871094 45.6184375 16.26742187 46.484375 15.24609375 C48.2734068 13.0513782 49.46033364 11.14326795 50.828125 8.59765625 C52.95934892 4.83219549 54.4771472 2.55690929 58 0 C65.21044015 -1.47278841 72.73048833 -0.73763745 80 0 C77.03118264 4.54382375 73.89100801 8.9157884 70.625 13.25 C70.11042236 13.93457275 69.59584473 14.61914551 69.06567383 15.32446289 C63.35523512 22.8953856 57.58743503 30.43341292 51.65209961 37.82983398 C49.94138749 40.00790181 49.94138749 40.00790181 48.42797852 42.51586914 C44.42414966 48.61360281 44.42414966 48.61360281 40.38598633 49.70922852 C37.39383671 49.88538641 34.55048948 49.78995268 31.5625 49.5625 C30.03592773 49.5015918 30.03592773 49.5015918 28.47851562 49.43945312 C25.98067203 49.33391044 23.49288156 49.18655951 21 49 C21.42152344 48.37351563 21.84304687 47.74703125 22.27734375 47.1015625 C22.82519531 46.28429687 23.37304688 45.46703125 23.9375 44.625 C24.75541016 43.40683594 24.75541016 43.40683594 25.58984375 42.1640625 C27.01093879 40.07280816 27.01093879 40.07280816 28 38 C20.97018068 28.54965682 13.86099655 19.1745142 6.54638672 9.94189453 C5.69971436 8.86464111 5.69971436 8.86464111 4.8359375 7.765625 C4.33626465 7.13430664 3.8365918 6.50298828 3.32177734 5.85253906 C1.98206384 3.97486155 0.97335616 2.08766123 0 0 Z " fill="#C1152E" transform="translate(109,82)"/>
<path d="M0 0 C0.33 0 0.66 0 1 0 C1 11.22 1 22.44 1 34 C-9.23 34 -19.46 34 -30 34 C-23.4411251 26.34797928 -16.83336802 18.78600154 -9.99975586 11.37915039 C-7.39716712 8.5508801 -4.85012691 5.69033149 -2.375 2.75 C-1.59125 1.8425 -0.8075 0.935 0 0 Z " fill="#FEFDFD" transform="translate(57,160)"/>
<path d="M0 0 C6.63857941 -0.04938006 13.27705227 -0.08571019 19.91577148 -0.10986328 C22.17490501 -0.11993058 24.43402547 -0.13358538 26.69311523 -0.15087891 C29.93736999 -0.17509508 33.18145271 -0.18647575 36.42578125 -0.1953125 C37.43836502 -0.20563507 38.45094879 -0.21595764 39.49421692 -0.22659302 C40.43496567 -0.22674408 41.37571442 -0.22689514 42.3449707 -0.22705078 C43.17325882 -0.231492 44.00154694 -0.23593323 44.85493469 -0.24050903 C47 0 47 0 50 2 C50.375 4.4375 50.375 4.4375 50 7 C48.39355578 9.13611159 47.51733674 9.91299275 44.85493469 10.36076355 C43.61250252 10.3507708 43.61250252 10.3507708 42.3449707 10.34057617 C41.40422195 10.34034958 40.46347321 10.34012299 39.49421692 10.33988953 C37.97534126 10.31666374 37.97534126 10.31666374 36.42578125 10.29296875 C35.38681198 10.28872391 34.34784271 10.28447906 33.27738953 10.28010559 C29.95549724 10.26329849 26.63420925 10.22564196 23.3125 10.1875 C21.06185771 10.17245582 18.81120593 10.15876695 16.56054688 10.14648438 C11.04013136 10.1133882 5.52016817 10.06159139 0 10 C0 6.7 0 3.4 0 0 Z " fill="#FEFDFD" transform="translate(120,174)"/>
<path d="M0 0 C6.0505912 -0.07416805 12.10091765 -0.12861087 18.15185547 -0.16479492 C20.21017059 -0.1798795 22.26845358 -0.20034987 24.32666016 -0.22631836 C27.28556244 -0.26271585 30.24403967 -0.27972966 33.203125 -0.29296875 C34.12305237 -0.30845261 35.04297974 -0.32393646 35.99078369 -0.33988953 C42.34318304 -0.34156211 42.34318304 -0.34156211 45.59667969 1.3503418 C47 3 47 3 47.25 5.6875 C47.1675 6.450625 47.085 7.21375 47 8 C44.03045709 9.70279307 41.91915193 10.24666179 38.50683594 10.22705078 C37.62622498 10.22689972 36.74561401 10.22674866 35.83831787 10.22659302 C34.42561615 10.21110916 34.42561615 10.21110916 32.984375 10.1953125 C32.01340881 10.1924826 31.04244263 10.18965271 30.04205322 10.18673706 C26.94457615 10.17555292 23.8473895 10.15045142 20.75 10.125 C18.64844168 10.11496792 16.54687882 10.10584247 14.4453125 10.09765625 C9.29676331 10.07561934 4.14843087 10.04110145 -1 10 C-0.67 6.7 -0.34 3.4 0 0 Z " fill="#FCF6F7" transform="translate(120,154)"/>
<path d="M0 0 C16.56048172 -0.08021762 16.56048172 -0.08021762 23.62109375 -0.09765625 C28.43835863 -0.10961054 33.25554746 -0.12375073 38.07275391 -0.15087891 C41.95660994 -0.17261396 45.84038441 -0.18457003 49.72429657 -0.18975449 C51.20586175 -0.19344905 52.68742249 -0.20066362 54.16895294 -0.21146011 C56.24456927 -0.225984 58.31984882 -0.22797759 60.39550781 -0.22705078 C61.57687317 -0.231492 62.75823853 -0.23593323 63.97540283 -0.24050903 C67 0 67 0 71 2 C48.23 2 25.46 2 2 2 C2 17.84 2 33.68 2 50 C1.34 50 0.68 50 0 50 C0 33.5 0 17 0 0 Z " fill="#C31D38" transform="translate(100,144)"/>
</svg>
